<svg width="20" height="20" viewBox="0 0 20 20" fill="none" xmlns="http://www.w3.org/2000/svg">
<path d="M1.36364 6.36364V18.6364H13.6364V6.36364H1.36364ZM1.36364 5H13.6364C13.998 5 14.3449 5.14367 14.6006 5.3994C14.8563 5.65513 15 6.00198 15 6.36364V18.6364C15 18.998 14.8563 19.3449 14.6006 19.6006C14.3449 19.8563 13.998 20 13.6364 20H1.36364C1.00198 20 0.655131 19.8563 0.3994 19.6006C0.143668 19.3449 0 18.998 0 18.6364V6.36364C0 6.00198 0.143668 5.65513 0.3994 5.3994C0.655131 5.14367 1.00198 5 1.36364 5Z" fill="#F6F6F6"/>
<path d="M1.36364 6.36364V18.6364H13.6364V6.36364H1.36364ZM1.36364 5H13.6364C13.998 5 14.3449 5.14367 14.6006 5.3994C14.8563 5.65513 15 6.00198 15 6.36364V18.6364C15 18.998 14.8563 19.3449 14.6006 19.6006C14.3449 19.8563 13.998 20 13.6364 20H1.36364C1.00198 20 0.655131 19.8563 0.3994 19.6006C0.143668 19.3449 0 18.998 0 18.6364V6.36364C0 6.00198 0.143668 5.65513 0.3994 5.3994C0.655131 5.14367 1.00198 5 1.36364 5Z" stroke="black"/>
<path d="M18.625 11H20V1.375C20 1.01033 19.8551 0.660591 19.5973 0.402728C19.3394 0.144866 18.9897 0 18.625 0H9V1.375H18.625V11Z" fill="#F6F6F6"/>
<path d="M18.625 11H20V1.375C20 1.01033 19.8551 0.660591 19.5973 0.402728C19.3394 0.144866 18.9897 0 18.625 0H9V1.375H18.625V11Z" stroke="black"/>
</svg>
