<svg width="38" height="38" viewBox="0 0 38 38" fill="none" xmlns="http://www.w3.org/2000/svg">
<path d="M21.7447 16.2546C20.2886 14.7991 18.314 13.9814 16.2552 13.9814C14.1963 13.9814 12.2217 14.7991 10.7656 16.2546L5.27423 21.7442C3.81806 23.2004 3 25.1754 3 27.2347C3 29.294 3.81806 31.269 5.27423 32.7252C6.73039 34.1813 8.70537 34.9994 10.7647 34.9994C12.824 34.9994 14.799 34.1813 16.2552 32.7252L19 29.9804" stroke="#C4C4C4" stroke-width="5" stroke-linecap="round" stroke-linejoin="round"/>
<path d="M16.2554 21.7447C17.7115 23.2003 19.6861 24.0179 21.745 24.0179C23.8038 24.0179 25.7784 23.2003 27.2345 21.7447L32.7259 16.2552C34.1821 14.799 35.0001 12.824 35.0001 10.7647C35.0001 8.70537 34.1821 6.73039 32.7259 5.27423C31.2697 3.81806 29.2947 3 27.2354 3C25.1761 3 23.2011 3.81806 21.745 5.27423L19.0002 8.01902" stroke="#C4C4C4" stroke-width="5" stroke-linecap="round" stroke-linejoin="round"/>
</svg>
