<svg width="1200" height="600" viewBox="0 0 1200 600" fill="none" xmlns="http://www.w3.org/2000/svg">
<rect width="1200" height="600" rx="25" fill="black"/>
<path d="M305.043 284.832C305.043 275.105 307.348 267.273 311.957 261.336C316.605 255.398 322.855 252.43 330.707 252.43C337.66 252.43 343.07 254.812 346.938 259.578L347.641 253.602H362.992V314.891C362.992 320.438 361.723 325.262 359.184 329.363C356.684 333.465 353.148 336.59 348.578 338.738C344.008 340.887 338.656 341.961 332.523 341.961C327.875 341.961 323.344 341.023 318.93 339.148C314.516 337.312 311.176 334.93 308.91 332L316.41 321.688C320.629 326.414 325.746 328.777 331.762 328.777C336.254 328.777 339.75 327.566 342.25 325.145C344.75 322.762 346 319.363 346 314.949V311.551C342.094 315.965 336.957 318.172 330.59 318.172C322.973 318.172 316.801 315.203 312.074 309.266C307.387 303.289 305.043 295.379 305.043 285.535V284.832ZM321.977 286.062C321.977 291.805 323.129 296.316 325.434 299.598C327.738 302.84 330.902 304.461 334.926 304.461C340.082 304.461 343.773 302.527 346 298.66V272C343.734 268.133 340.082 266.199 335.043 266.199C330.98 266.199 327.777 267.859 325.434 271.18C323.129 274.5 321.977 279.461 321.977 286.062ZM411.684 269.48C409.379 269.168 407.348 269.012 405.59 269.012C399.184 269.012 394.984 271.18 392.992 275.516V317H376.059V253.602H392.055L392.523 261.16C395.922 255.34 400.629 252.43 406.645 252.43C408.52 252.43 410.277 252.684 411.918 253.191L411.684 269.48ZM454.867 317C454.086 315.477 453.52 313.582 453.168 311.316C449.066 315.887 443.734 318.172 437.172 318.172C430.961 318.172 425.805 316.375 421.703 312.781C417.641 309.188 415.609 304.656 415.609 299.188C415.609 292.469 418.09 287.312 423.051 283.719C428.051 280.125 435.258 278.309 444.672 278.27H452.465V274.637C452.465 271.707 451.703 269.363 450.18 267.605C448.695 265.848 446.332 264.969 443.09 264.969C440.238 264.969 437.992 265.652 436.352 267.02C434.75 268.387 433.949 270.262 433.949 272.645H417.016C417.016 268.973 418.148 265.574 420.414 262.449C422.68 259.324 425.883 256.883 430.023 255.125C434.164 253.328 438.812 252.43 443.969 252.43C451.781 252.43 457.973 254.402 462.543 258.348C467.152 262.254 469.457 267.762 469.457 274.871V302.352C469.496 308.367 470.336 312.918 471.977 316.004V317H454.867ZM440.863 305.223C443.363 305.223 445.668 304.676 447.777 303.582C449.887 302.449 451.449 300.945 452.465 299.07V288.172H446.137C437.66 288.172 433.148 291.102 432.602 296.961L432.543 297.957C432.543 300.066 433.285 301.805 434.77 303.172C436.254 304.539 438.285 305.223 440.863 305.223ZM498.051 253.602L498.578 260.926C503.109 255.262 509.184 252.43 516.801 252.43C523.52 252.43 528.52 254.402 531.801 258.348C535.082 262.293 536.762 268.191 536.84 276.043V317H519.906V276.453C519.906 272.859 519.125 270.262 517.562 268.66C516 267.02 513.402 266.199 509.77 266.199C505.004 266.199 501.43 268.23 499.047 272.293V317H482.113V253.602H498.051ZM587.699 310.555C583.52 315.633 577.738 318.172 570.355 318.172C563.559 318.172 558.363 316.219 554.77 312.312C551.215 308.406 549.398 302.684 549.32 295.145V253.602H566.254V294.559C566.254 301.16 569.262 304.461 575.277 304.461C581.02 304.461 584.965 302.469 587.113 298.484V253.602H604.105V317H588.168L587.699 310.555ZM634.75 317H617.758V227H634.75V317ZM685.492 317C684.711 315.477 684.145 313.582 683.793 311.316C679.691 315.887 674.359 318.172 667.797 318.172C661.586 318.172 656.43 316.375 652.328 312.781C648.266 309.188 646.234 304.656 646.234 299.188C646.234 292.469 648.715 287.312 653.676 283.719C658.676 280.125 665.883 278.309 675.297 278.27H683.09V274.637C683.09 271.707 682.328 269.363 680.805 267.605C679.32 265.848 676.957 264.969 673.715 264.969C670.863 264.969 668.617 265.652 666.977 267.02C665.375 268.387 664.574 270.262 664.574 272.645H647.641C647.641 268.973 648.773 265.574 651.039 262.449C653.305 259.324 656.508 256.883 660.648 255.125C664.789 253.328 669.438 252.43 674.594 252.43C682.406 252.43 688.598 254.402 693.168 258.348C697.777 262.254 700.082 267.762 700.082 274.871V302.352C700.121 308.367 700.961 312.918 702.602 316.004V317H685.492ZM671.488 305.223C673.988 305.223 676.293 304.676 678.402 303.582C680.512 302.449 682.074 300.945 683.09 299.07V288.172H676.762C668.285 288.172 663.773 291.102 663.227 296.961L663.168 297.957C663.168 300.066 663.91 301.805 665.395 303.172C666.879 304.539 668.91 305.223 671.488 305.223ZM748.715 269.48C746.41 269.168 744.379 269.012 742.621 269.012C736.215 269.012 732.016 271.18 730.023 275.516V317H713.09V253.602H729.086L729.555 261.16C732.953 255.34 737.66 252.43 743.676 252.43C745.551 252.43 747.309 252.684 748.949 253.191L748.715 269.48ZM774.789 317H757.797V253.602H774.789V317ZM756.801 237.195C756.801 234.656 757.641 232.566 759.32 230.926C761.039 229.285 763.363 228.465 766.293 228.465C769.184 228.465 771.488 229.285 773.207 230.926C774.926 232.566 775.785 234.656 775.785 237.195C775.785 239.773 774.906 241.883 773.148 243.523C771.43 245.164 769.145 245.984 766.293 245.984C763.441 245.984 761.137 245.164 759.379 243.523C757.66 241.883 756.801 239.773 756.801 237.195ZM809.066 238.016V253.602H819.906V266.023H809.066V297.664C809.066 300.008 809.516 301.688 810.414 302.703C811.312 303.719 813.031 304.227 815.57 304.227C817.445 304.227 819.105 304.09 820.551 303.816V316.648C817.23 317.664 813.812 318.172 810.297 318.172C798.422 318.172 792.367 312.176 792.133 300.184V266.023H782.875V253.602H792.133V238.016H809.066ZM853.012 293.035L864.73 253.602H882.895L857.406 326.844L856 330.184C852.211 338.465 845.961 342.605 837.25 342.605C834.789 342.605 832.289 342.234 829.75 341.492V328.66L832.328 328.719C835.531 328.719 837.914 328.23 839.477 327.254C841.078 326.277 842.328 324.656 843.227 322.391L845.219 317.176L823.012 253.602H841.234L853.012 293.035Z" fill="#66B2B2"/>
</svg>
